<mxfile host="Electron" modified="2024-02-27T18:29:16.481Z" agent="Mozilla/5.0 (Macintosh; Intel Mac OS X 10_15_7) AppleWebKit/537.36 (KHTML, like Gecko) draw.io/22.1.2 Chrome/114.0.5735.289 Electron/25.9.4 Safari/537.36" etag="WNPMwHGaiueV-dfOjT_a" version="22.1.2" type="device">
  <diagram name="Page-1" id="pmIM2EHNipJEDKrY4-Q9">
    <mxGraphModel dx="2018" dy="854" grid="1" gridSize="10" guides="1" tooltips="1" connect="1" arrows="1" fold="1" page="1" pageScale="1" pageWidth="850" pageHeight="1100" math="0" shadow="0">
      <root>
        <mxCell id="0" />
        <mxCell id="1" parent="0" />
        <mxCell id="jlky9_Y9rjvG-3TXcRzs-2" value="msconvert" style="edgeStyle=orthogonalEdgeStyle;rounded=0;orthogonalLoop=1;jettySize=auto;html=1;exitX=0.5;exitY=1;exitDx=0;exitDy=0;" parent="1" source="jlky9_Y9rjvG-3TXcRzs-1" edge="1">
          <mxGeometry relative="1" as="geometry">
            <mxPoint x="440" y="160" as="targetPoint" />
          </mxGeometry>
        </mxCell>
        <mxCell id="jlky9_Y9rjvG-3TXcRzs-1" value=".raw files" style="rounded=0;whiteSpace=wrap;html=1;" parent="1" vertex="1">
          <mxGeometry x="380" y="40" width="120" height="60" as="geometry" />
        </mxCell>
        <mxCell id="jlky9_Y9rjvG-3TXcRzs-7" value="Fragpipe TMT16-MS3" style="edgeStyle=orthogonalEdgeStyle;rounded=0;orthogonalLoop=1;jettySize=auto;html=1;exitX=0.5;exitY=1;exitDx=0;exitDy=0;entryX=0.5;entryY=0;entryDx=0;entryDy=0;" parent="1" source="jlky9_Y9rjvG-3TXcRzs-3" target="jlky9_Y9rjvG-3TXcRzs-6" edge="1">
          <mxGeometry x="0.3333" relative="1" as="geometry">
            <mxPoint as="offset" />
          </mxGeometry>
        </mxCell>
        <mxCell id="QuMbmpY1Ql-EbjfdxzaW-46" value="Fragpipe Open Search" style="edgeStyle=orthogonalEdgeStyle;rounded=0;orthogonalLoop=1;jettySize=auto;html=1;exitX=0.5;exitY=1;exitDx=0;exitDy=0;entryX=0.5;entryY=0;entryDx=0;entryDy=0;" edge="1" parent="1" source="jlky9_Y9rjvG-3TXcRzs-3" target="QuMbmpY1Ql-EbjfdxzaW-45">
          <mxGeometry x="0.3659" y="10" relative="1" as="geometry">
            <mxPoint as="offset" />
          </mxGeometry>
        </mxCell>
        <mxCell id="QuMbmpY1Ql-EbjfdxzaW-51" style="edgeStyle=orthogonalEdgeStyle;rounded=0;orthogonalLoop=1;jettySize=auto;html=1;exitX=0;exitY=0.5;exitDx=0;exitDy=0;entryX=0.5;entryY=1;entryDx=0;entryDy=0;" edge="1" parent="1" source="jlky9_Y9rjvG-3TXcRzs-3" target="jlky9_Y9rjvG-3TXcRzs-5">
          <mxGeometry relative="1" as="geometry" />
        </mxCell>
        <mxCell id="jlky9_Y9rjvG-3TXcRzs-3" value=".mzML" style="rounded=0;whiteSpace=wrap;html=1;" parent="1" vertex="1">
          <mxGeometry x="380" y="160" width="120" height="60" as="geometry" />
        </mxCell>
        <mxCell id="jlky9_Y9rjvG-3TXcRzs-5" value="MASSIVE" style="rounded=0;whiteSpace=wrap;html=1;" parent="1" vertex="1">
          <mxGeometry x="230" y="100" width="120" height="60" as="geometry" />
        </mxCell>
        <mxCell id="jlky9_Y9rjvG-3TXcRzs-9" style="edgeStyle=orthogonalEdgeStyle;rounded=0;orthogonalLoop=1;jettySize=auto;html=1;exitX=0.5;exitY=1;exitDx=0;exitDy=0;entryX=0.5;entryY=0;entryDx=0;entryDy=0;" parent="1" source="jlky9_Y9rjvG-3TXcRzs-6" target="jlky9_Y9rjvG-3TXcRzs-8" edge="1">
          <mxGeometry relative="1" as="geometry" />
        </mxCell>
        <mxCell id="jlky9_Y9rjvG-3TXcRzs-10" value="msstatstmt::summarise_proteins()" style="edgeLabel;html=1;align=center;verticalAlign=middle;resizable=0;points=[];" parent="jlky9_Y9rjvG-3TXcRzs-9" vertex="1" connectable="0">
          <mxGeometry x="-0.04" y="-1" relative="1" as="geometry">
            <mxPoint x="1" y="-14" as="offset" />
          </mxGeometry>
        </mxCell>
        <mxCell id="QuMbmpY1Ql-EbjfdxzaW-29" style="edgeStyle=orthogonalEdgeStyle;rounded=0;orthogonalLoop=1;jettySize=auto;html=1;exitX=0.5;exitY=1;exitDx=0;exitDy=0;entryX=0.5;entryY=0;entryDx=0;entryDy=0;" edge="1" parent="1" source="jlky9_Y9rjvG-3TXcRzs-6" target="QuMbmpY1Ql-EbjfdxzaW-25">
          <mxGeometry relative="1" as="geometry">
            <Array as="points">
              <mxPoint x="440" y="360" />
              <mxPoint x="690" y="360" />
            </Array>
          </mxGeometry>
        </mxCell>
        <mxCell id="jlky9_Y9rjvG-3TXcRzs-6" value="msstats.csv" style="rounded=0;whiteSpace=wrap;html=1;" parent="1" vertex="1">
          <mxGeometry x="380" y="280" width="120" height="60" as="geometry" />
        </mxCell>
        <mxCell id="jlky9_Y9rjvG-3TXcRzs-11" value="msstatstmt::pairwise_comparisons()" style="edgeStyle=orthogonalEdgeStyle;rounded=0;orthogonalLoop=1;jettySize=auto;html=1;exitX=0.5;exitY=1;exitDx=0;exitDy=0;entryX=0.5;entryY=0;entryDx=0;entryDy=0;" parent="1" source="jlky9_Y9rjvG-3TXcRzs-8" edge="1" target="jlky9_Y9rjvG-3TXcRzs-12">
          <mxGeometry x="-0.1923" y="9" relative="1" as="geometry">
            <mxPoint x="440" y="500" as="targetPoint" />
            <mxPoint as="offset" />
            <Array as="points">
              <mxPoint x="440" y="470" />
              <mxPoint x="440" y="470" />
            </Array>
          </mxGeometry>
        </mxCell>
        <mxCell id="jlky9_Y9rjvG-3TXcRzs-20" style="edgeStyle=orthogonalEdgeStyle;rounded=0;orthogonalLoop=1;jettySize=auto;html=1;exitX=0;exitY=0.5;exitDx=0;exitDy=0;entryX=0.5;entryY=0;entryDx=0;entryDy=0;" parent="1" source="jlky9_Y9rjvG-3TXcRzs-8" target="jlky9_Y9rjvG-3TXcRzs-19" edge="1">
          <mxGeometry relative="1" as="geometry" />
        </mxCell>
        <mxCell id="jlky9_Y9rjvG-3TXcRzs-24" value="stats::glm()" style="edgeStyle=orthogonalEdgeStyle;rounded=0;orthogonalLoop=1;jettySize=auto;html=1;exitX=0;exitY=0.5;exitDx=0;exitDy=0;entryX=0;entryY=0.5;entryDx=0;entryDy=0;" parent="1" source="jlky9_Y9rjvG-3TXcRzs-8" target="jlky9_Y9rjvG-3TXcRzs-21" edge="1">
          <mxGeometry x="0.6615" relative="1" as="geometry">
            <mxPoint as="offset" />
          </mxGeometry>
        </mxCell>
        <mxCell id="QuMbmpY1Ql-EbjfdxzaW-34" style="edgeStyle=orthogonalEdgeStyle;rounded=0;orthogonalLoop=1;jettySize=auto;html=1;exitX=0;exitY=0.5;exitDx=0;exitDy=0;entryX=0.5;entryY=0;entryDx=0;entryDy=0;" edge="1" parent="1" source="jlky9_Y9rjvG-3TXcRzs-8" target="QuMbmpY1Ql-EbjfdxzaW-33">
          <mxGeometry relative="1" as="geometry">
            <Array as="points">
              <mxPoint x="270" y="420" />
            </Array>
          </mxGeometry>
        </mxCell>
        <mxCell id="jlky9_Y9rjvG-3TXcRzs-8" value="&lt;font style=&quot;font-size: 10px;&quot;&gt;quant_msstats_protein_level_data.csv&lt;/font&gt;" style="rounded=0;whiteSpace=wrap;html=1;" parent="1" vertex="1">
          <mxGeometry x="330" y="390" width="220" height="60" as="geometry" />
        </mxCell>
        <mxCell id="jlky9_Y9rjvG-3TXcRzs-31" style="edgeStyle=orthogonalEdgeStyle;rounded=0;orthogonalLoop=1;jettySize=auto;html=1;exitX=0.5;exitY=1;exitDx=0;exitDy=0;" parent="1" source="jlky9_Y9rjvG-3TXcRzs-12" target="jlky9_Y9rjvG-3TXcRzs-26" edge="1">
          <mxGeometry relative="1" as="geometry" />
        </mxCell>
        <mxCell id="jlky9_Y9rjvG-3TXcRzs-32" style="edgeStyle=orthogonalEdgeStyle;rounded=0;orthogonalLoop=1;jettySize=auto;html=1;exitX=0.5;exitY=1;exitDx=0;exitDy=0;entryX=0.5;entryY=0;entryDx=0;entryDy=0;" parent="1" source="jlky9_Y9rjvG-3TXcRzs-12" target="jlky9_Y9rjvG-3TXcRzs-27" edge="1">
          <mxGeometry relative="1" as="geometry" />
        </mxCell>
        <mxCell id="QuMbmpY1Ql-EbjfdxzaW-27" style="edgeStyle=orthogonalEdgeStyle;rounded=0;orthogonalLoop=1;jettySize=auto;html=1;exitX=0.5;exitY=1;exitDx=0;exitDy=0;entryX=0.5;entryY=0;entryDx=0;entryDy=0;" edge="1" parent="1" source="jlky9_Y9rjvG-3TXcRzs-12" target="jlky9_Y9rjvG-3TXcRzs-29">
          <mxGeometry relative="1" as="geometry" />
        </mxCell>
        <mxCell id="jlky9_Y9rjvG-3TXcRzs-12" value="groupComparison_results.csv" style="rounded=0;whiteSpace=wrap;html=1;" parent="1" vertex="1">
          <mxGeometry x="355" y="500" width="170" height="60" as="geometry" />
        </mxCell>
        <mxCell id="QuMbmpY1Ql-EbjfdxzaW-53" style="edgeStyle=orthogonalEdgeStyle;rounded=0;orthogonalLoop=1;jettySize=auto;html=1;exitX=0.5;exitY=1;exitDx=0;exitDy=0;" edge="1" parent="1" source="jlky9_Y9rjvG-3TXcRzs-13">
          <mxGeometry relative="1" as="geometry">
            <mxPoint x="440" y="250" as="targetPoint" />
            <Array as="points">
              <mxPoint x="660" y="230" />
              <mxPoint x="441" y="230" />
            </Array>
          </mxGeometry>
        </mxCell>
        <mxCell id="jlky9_Y9rjvG-3TXcRzs-13" value="sample metadata&lt;br&gt;&lt;font style=&quot;font-size: 10px;&quot;&gt;(sampleID, plex number, TMT)&lt;/font&gt;" style="rounded=0;whiteSpace=wrap;html=1;" parent="1" vertex="1">
          <mxGeometry x="600" y="40" width="120" height="60" as="geometry" />
        </mxCell>
        <mxCell id="s90nXyzFivGJ0zENrk_Y-1" style="edgeStyle=orthogonalEdgeStyle;rounded=0;orthogonalLoop=1;jettySize=auto;html=1;exitX=0.5;exitY=1;exitDx=0;exitDy=0;" parent="1" source="jlky9_Y9rjvG-3TXcRzs-15" edge="1">
          <mxGeometry relative="1" as="geometry">
            <mxPoint x="250" y="420" as="targetPoint" />
            <Array as="points">
              <mxPoint x="620" y="360" />
              <mxPoint x="251" y="360" />
            </Array>
          </mxGeometry>
        </mxCell>
        <mxCell id="QuMbmpY1Ql-EbjfdxzaW-18" style="edgeStyle=orthogonalEdgeStyle;rounded=0;orthogonalLoop=1;jettySize=auto;html=1;exitX=0;exitY=0.5;exitDx=0;exitDy=0;entryX=1;entryY=0.5;entryDx=0;entryDy=0;" edge="1" parent="1" source="jlky9_Y9rjvG-3TXcRzs-15" target="jlky9_Y9rjvG-3TXcRzs-6">
          <mxGeometry relative="1" as="geometry" />
        </mxCell>
        <mxCell id="jlky9_Y9rjvG-3TXcRzs-15" value="clinical metadata&lt;br&gt;&lt;font style=&quot;font-size: 10px;&quot;&gt;(sampleID, type of infection, etc)&lt;/font&gt;" style="rounded=0;whiteSpace=wrap;html=1;" parent="1" vertex="1">
          <mxGeometry x="560" y="280" width="120" height="60" as="geometry" />
        </mxCell>
        <mxCell id="jlky9_Y9rjvG-3TXcRzs-22" value="top 10 proteins" style="edgeStyle=orthogonalEdgeStyle;rounded=0;orthogonalLoop=1;jettySize=auto;html=1;exitX=0.5;exitY=1;exitDx=0;exitDy=0;entryX=0.5;entryY=0;entryDx=0;entryDy=0;" parent="1" source="jlky9_Y9rjvG-3TXcRzs-19" target="jlky9_Y9rjvG-3TXcRzs-21" edge="1">
          <mxGeometry relative="1" as="geometry">
            <Array as="points">
              <mxPoint x="160" y="580" />
              <mxPoint x="160" y="580" />
            </Array>
            <mxPoint as="offset" />
          </mxGeometry>
        </mxCell>
        <mxCell id="QuMbmpY1Ql-EbjfdxzaW-22" value="functions.R::metadata_assesment()" style="edgeStyle=orthogonalEdgeStyle;rounded=0;orthogonalLoop=1;jettySize=auto;html=1;exitX=0;exitY=0.5;exitDx=0;exitDy=0;entryX=0;entryY=0.5;entryDx=0;entryDy=0;" edge="1" parent="1" source="jlky9_Y9rjvG-3TXcRzs-19" target="QuMbmpY1Ql-EbjfdxzaW-20">
          <mxGeometry x="0.9452" y="40" relative="1" as="geometry">
            <Array as="points">
              <mxPoint x="30" y="510" />
              <mxPoint x="30" y="720" />
            </Array>
            <mxPoint as="offset" />
          </mxGeometry>
        </mxCell>
        <mxCell id="QuMbmpY1Ql-EbjfdxzaW-23" value="rstatix::t_test()" style="edgeStyle=orthogonalEdgeStyle;rounded=0;orthogonalLoop=1;jettySize=auto;html=1;exitX=0;exitY=0.5;exitDx=0;exitDy=0;entryX=0;entryY=0.5;entryDx=0;entryDy=0;" edge="1" parent="1" source="jlky9_Y9rjvG-3TXcRzs-19" target="QuMbmpY1Ql-EbjfdxzaW-21">
          <mxGeometry x="0.802" y="10" relative="1" as="geometry">
            <Array as="points">
              <mxPoint y="510" />
              <mxPoint y="800" />
            </Array>
            <mxPoint as="offset" />
          </mxGeometry>
        </mxCell>
        <mxCell id="jlky9_Y9rjvG-3TXcRzs-19" value="EFS Biomarker Analysis" style="rounded=0;whiteSpace=wrap;html=1;" parent="1" vertex="1">
          <mxGeometry x="115" y="480" width="90" height="60" as="geometry" />
        </mxCell>
        <mxCell id="jlky9_Y9rjvG-3TXcRzs-21" value="ROC Analysis" style="rounded=0;whiteSpace=wrap;html=1;" parent="1" vertex="1">
          <mxGeometry x="100" y="610" width="120" height="60" as="geometry" />
        </mxCell>
        <mxCell id="QuMbmpY1Ql-EbjfdxzaW-35" style="edgeStyle=orthogonalEdgeStyle;rounded=0;orthogonalLoop=1;jettySize=auto;html=1;exitX=0.5;exitY=1;exitDx=0;exitDy=0;entryX=0.5;entryY=0;entryDx=0;entryDy=0;" edge="1" parent="1" source="jlky9_Y9rjvG-3TXcRzs-26" target="QuMbmpY1Ql-EbjfdxzaW-9">
          <mxGeometry relative="1" as="geometry" />
        </mxCell>
        <mxCell id="jlky9_Y9rjvG-3TXcRzs-26" value="healthy_v_faecium.csv" style="rounded=0;whiteSpace=wrap;html=1;" parent="1" vertex="1">
          <mxGeometry x="225" y="610" width="130" height="60" as="geometry" />
        </mxCell>
        <mxCell id="QuMbmpY1Ql-EbjfdxzaW-36" style="edgeStyle=orthogonalEdgeStyle;rounded=0;orthogonalLoop=1;jettySize=auto;html=1;exitX=0.5;exitY=1;exitDx=0;exitDy=0;" edge="1" parent="1" source="jlky9_Y9rjvG-3TXcRzs-27">
          <mxGeometry relative="1" as="geometry">
            <mxPoint x="360" y="770" as="targetPoint" />
          </mxGeometry>
        </mxCell>
        <mxCell id="QuMbmpY1Ql-EbjfdxzaW-38" style="edgeStyle=orthogonalEdgeStyle;rounded=0;orthogonalLoop=1;jettySize=auto;html=1;exitX=0.5;exitY=1;exitDx=0;exitDy=0;" edge="1" parent="1" source="jlky9_Y9rjvG-3TXcRzs-27" target="QuMbmpY1Ql-EbjfdxzaW-10">
          <mxGeometry relative="1" as="geometry" />
        </mxCell>
        <mxCell id="jlky9_Y9rjvG-3TXcRzs-27" value="faecalis_v_healthy.csv" style="rounded=0;whiteSpace=wrap;html=1;" parent="1" vertex="1">
          <mxGeometry x="377.5" y="610" width="125" height="60" as="geometry" />
        </mxCell>
        <mxCell id="QuMbmpY1Ql-EbjfdxzaW-37" style="edgeStyle=orthogonalEdgeStyle;rounded=0;orthogonalLoop=1;jettySize=auto;html=1;exitX=0.5;exitY=1;exitDx=0;exitDy=0;" edge="1" parent="1" source="jlky9_Y9rjvG-3TXcRzs-29" target="QuMbmpY1Ql-EbjfdxzaW-10">
          <mxGeometry relative="1" as="geometry" />
        </mxCell>
        <mxCell id="jlky9_Y9rjvG-3TXcRzs-29" value="faecalis_vs_faecium.csv" style="rounded=0;whiteSpace=wrap;html=1;" parent="1" vertex="1">
          <mxGeometry x="525" y="610" width="130" height="60" as="geometry" />
        </mxCell>
        <mxCell id="QuMbmpY1Ql-EbjfdxzaW-39" style="edgeStyle=orthogonalEdgeStyle;rounded=0;orthogonalLoop=1;jettySize=auto;html=1;exitX=0.5;exitY=1;exitDx=0;exitDy=0;" edge="1" parent="1" source="QuMbmpY1Ql-EbjfdxzaW-8" target="QuMbmpY1Ql-EbjfdxzaW-10">
          <mxGeometry relative="1" as="geometry">
            <Array as="points">
              <mxPoint x="690" y="720" />
              <mxPoint x="540" y="720" />
            </Array>
          </mxGeometry>
        </mxCell>
        <mxCell id="QuMbmpY1Ql-EbjfdxzaW-8" value="death_vs_life.csv" style="rounded=0;whiteSpace=wrap;html=1;" vertex="1" parent="1">
          <mxGeometry x="630" y="500" width="120" height="60" as="geometry" />
        </mxCell>
        <mxCell id="QuMbmpY1Ql-EbjfdxzaW-9" value="Volcano plot" style="rounded=0;whiteSpace=wrap;html=1;" vertex="1" parent="1">
          <mxGeometry x="300" y="770" width="120" height="60" as="geometry" />
        </mxCell>
        <mxCell id="QuMbmpY1Ql-EbjfdxzaW-10" value="GO Term Enrichment Analysis" style="rounded=0;whiteSpace=wrap;html=1;" vertex="1" parent="1">
          <mxGeometry x="480" y="770" width="120" height="60" as="geometry" />
        </mxCell>
        <mxCell id="QuMbmpY1Ql-EbjfdxzaW-20" value="Metadata Assesment" style="rounded=0;whiteSpace=wrap;html=1;" vertex="1" parent="1">
          <mxGeometry x="100" y="690" width="120" height="60" as="geometry" />
        </mxCell>
        <mxCell id="QuMbmpY1Ql-EbjfdxzaW-21" value="Violin Plots" style="rounded=0;whiteSpace=wrap;html=1;" vertex="1" parent="1">
          <mxGeometry x="100" y="770" width="120" height="60" as="geometry" />
        </mxCell>
        <mxCell id="QuMbmpY1Ql-EbjfdxzaW-31" value="msstatstmt::pairwise_comparisons()" style="edgeStyle=orthogonalEdgeStyle;rounded=0;orthogonalLoop=1;jettySize=auto;html=1;exitX=0.5;exitY=1;exitDx=0;exitDy=0;entryX=0.5;entryY=0;entryDx=0;entryDy=0;" edge="1" parent="1" source="QuMbmpY1Ql-EbjfdxzaW-25" target="QuMbmpY1Ql-EbjfdxzaW-8">
          <mxGeometry x="-0.2" relative="1" as="geometry">
            <mxPoint as="offset" />
          </mxGeometry>
        </mxCell>
        <mxCell id="QuMbmpY1Ql-EbjfdxzaW-25" value="&lt;font style=&quot;font-size: 10px;&quot;&gt;quant_msstats_protein_level_data_death.csv&quot;&lt;/font&gt;" style="rounded=0;whiteSpace=wrap;html=1;" vertex="1" parent="1">
          <mxGeometry x="580" y="390" width="220" height="60" as="geometry" />
        </mxCell>
        <mxCell id="QuMbmpY1Ql-EbjfdxzaW-33" value="Unsupervised Hierchical Clustering" style="rounded=0;whiteSpace=wrap;html=1;" vertex="1" parent="1">
          <mxGeometry x="210" y="480" width="120" height="60" as="geometry" />
        </mxCell>
        <mxCell id="QuMbmpY1Ql-EbjfdxzaW-41" value="&lt;font style=&quot;font-size: 10px;&quot;&gt;FASTA Protein Database&lt;br&gt;Human, Faecalis, and Faecium Proteomes&lt;/font&gt;" style="rounded=0;whiteSpace=wrap;html=1;" vertex="1" parent="1">
          <mxGeometry x="600" y="110" width="120" height="60" as="geometry" />
        </mxCell>
        <mxCell id="QuMbmpY1Ql-EbjfdxzaW-45" value="global.modsummary.tsv" style="rounded=0;whiteSpace=wrap;html=1;" vertex="1" parent="1">
          <mxGeometry x="700" y="280" width="140" height="60" as="geometry" />
        </mxCell>
      </root>
    </mxGraphModel>
  </diagram>
</mxfile>
